<svg width="77" height="77" viewBox="0 0 77 77" fill="none" xmlns="http://www.w3.org/2000/svg">
<path d="M53.3703 23.6641H23.6914V53.3429H53.3703V23.6641Z" fill="black"/>
<path d="M7.32706 53.8337V35.6545C7.32706 34.3335 7.85044 33.0624 8.78756 32.1303L21.5384 19.3795C22.4755 18.4423 23.7417 17.9189 25.0626 17.9189H48.1517L41.1781 10.9453H25.7156C21.7478 10.9453 17.9445 12.5205 15.1431 15.3269L4.54561 25.9243C1.73923 28.7258 0.164062 32.5291 0.164062 36.4969V46.8451L7.32706 53.8337Z" fill="black"/>
<path d="M53.9 69.7309H35.7209C34.3999 69.7309 33.1288 69.2075 32.1967 68.2704L19.4458 55.5195C18.5087 54.5824 17.9853 53.3163 17.9853 51.9953V28.9062L11.0117 35.8798V51.3423C11.0117 55.3102 12.5869 59.1135 15.3932 61.9149L25.9907 72.5127C28.7971 75.3189 32.6005 76.8939 36.5632 76.8939H46.9115L53.9 69.7309Z" fill="black"/>
<path d="M69.6713 23.2031V41.3823C69.6713 42.7033 69.1479 43.9744 68.2108 44.9065L55.4598 57.6573C54.5227 58.5945 53.2566 59.1178 51.9357 59.1178H28.8516L35.8251 66.0915H51.2877C55.2555 66.0915 59.0588 64.5163 61.8603 61.7099L72.4576 51.1124C75.2638 48.3061 76.8395 44.5028 76.8395 40.5399V30.1917L69.6763 23.2031H69.6713Z" fill="black"/>
<path d="M23.2734 7.27237H41.4526C42.7735 7.27237 44.0447 7.79576 44.9768 8.73287L57.7277 21.4837C58.6648 22.4208 59.1882 23.687 59.1882 25.0079V48.0971L66.1617 41.1234V25.6609C66.1617 21.6931 64.5866 17.8898 61.7802 15.0884L51.1827 4.49092C48.3814 1.68454 44.5731 0.109375 40.6102 0.109375H30.262L23.2734 7.27237Z" fill="black"/>
</svg>
